<mxfile host="app.diagrams.net" modified="2023-10-11T06:53:35.130Z" agent="Mozilla/5.0 (Windows NT 10.0; Win64; x64) AppleWebKit/537.36 (KHTML, like Gecko) Chrome/117.0.0.0 Safari/537.36" version="22.0.4" etag="u3NquOA0mYmRFMy74hCa" type="github">
  <diagram name="第 1 页" id="JTO5u36G0om0MWuu-yj3">
    <mxGraphModel>
      <root>
        <mxCell id="0" />
        <mxCell id="1" parent="0" />
      </root>
    </mxGraphModel>
  </diagram>
</mxfile>
